HIERARCHY
ROOT hip
{
	OFFSET 0.000000 0.000000 0.000000 
	CHANNELS 6 Xposition Yposition Zposition Xrotation Zrotation Yrotation
	JOINT abdomen
	{
		OFFSET 0.000000 3.402643 0.000000 
		CHANNELS 3 Xrotation Zrotation Yrotation
		JOINT chest
		{
			OFFSET 0.000000 8.438565 -0.680529 
			CHANNELS 3 Xrotation Zrotation Yrotation
			JOINT neck
			{
				OFFSET 0.000000 10.207942 -0.272212 
				CHANNELS 3 Xrotation Zrotation Yrotation
				JOINT head
				{
					OFFSET 0.000000 3.130431 0.000000 
					CHANNELS 3 Xrotation Zrotation Yrotation
					End Site
					{
						OFFSET 0.000000 3.130435 0.000000 
					}
				}
			}
			JOINT lCollar
			{
				OFFSET 3.470700 6.669187 -0.816635 
				CHANNELS 3 Yrotation Zrotation Xrotation
				JOINT lShldr
				{
					OFFSET 3.198488 0.000000 0.000000 
					CHANNELS 3 Zrotation Yrotation Xrotation
					JOINT lForeArm
					{
						OFFSET 10.139888 0.000000 0.000000 
						CHANNELS 3 Yrotation Zrotation Xrotation
						JOINT lHand
						{
							OFFSET 8.370511 0.000000 0.000000 
							CHANNELS 3 Zrotation Yrotation Xrotation
							End Site
							{
								OFFSET 4.083176 0.000000 0.000000 
							}
						}
					}
				}
			}
			JOINT rCollar
			{
				OFFSET -3.470700 6.669187 -0.816635 
				CHANNELS 3 Yrotation Zrotation Xrotation
				JOINT rShldr
				{
					OFFSET -3.198488 0.000000 0.000000 
					CHANNELS 3 Zrotation Yrotation Xrotation
					JOINT rForeArm
					{
						OFFSET -10.139888 0.000000 0.000000 
						CHANNELS 3 Yrotation Zrotation Xrotation
						JOINT rHand
						{
							OFFSET -8.370511 0.000000 0.000000 
							CHANNELS 3 Zrotation Yrotation Xrotation
							End Site
							{
								OFFSET -4.083176 0.000000 0.000000 
							}
						}
					}
				}
			}
		}
	}
	JOINT lThigh
	{
		OFFSET 5.308129 -1.633274 1.361059 
		CHANNELS 3 Xrotation Zrotation Yrotation
		JOINT lShin
		{
			OFFSET -2.041588 -20.007561 0.000000 
			CHANNELS 3 Xrotation Zrotation Yrotation
			JOINT lFoot
			{
				OFFSET 0.000000 -19.190928 -1.224953 
				CHANNELS 3 Xrotation Yrotation Zrotation
				End Site
				{
					OFFSET 0.000000 -2.449906 4.627600 
				}
			}
		}
	}
	JOINT rThigh
	{
		OFFSET -5.308129 -1.633274 1.361059 
		CHANNELS 3 Xrotation Zrotation Yrotation
		JOINT rShin
		{
			OFFSET 2.041588 -20.007561 0.000000 
			CHANNELS 3 Xrotation Zrotation Yrotation
			JOINT rFoot
			{
				OFFSET 0.000000 -19.190928 -1.224953 
				CHANNELS 3 Xrotation Yrotation Zrotation
				End Site
				{
					OFFSET 0.000000 -2.449906 4.627600 
				}
			}
		}
	}
}
MOTION
Frames: 6
Frame Time: 0.016667
10.037958 48.452927 62.158478 -1.229497 4.741790 26.445879 21.898882 -16.178740 -6.856232 -8.127151 -9.083229 -5.904716 51.558491 8.067881 2.614341 -75.371918 6.990418 -23.357534 2.440177 -25.000000 10.338728 -36.177647 10.911098 -1.687957 -83.440346 -0.185698 -2.899008 35.198372 -0.202506 -0.644773 -0.494552 15.322166 13.505280 49.290768 -8.752803 -99.558456 74.786774 0.230945 -2.825669 30.841654 -71.452972 -66.181969 -17.849655 9.413857 -25.490248 22.029900 -5.596223 -2.683798 -2.287526 -3.203651 -11.178562 -2.481277 -16.063881 -32.490086 40.011234 3.857468 3.259773 17.332293 -20.103155 4.823353 
9.905445 48.353802 62.714588 -1.789667 4.701002 25.257124 21.794825 -16.636759 -5.841598 -8.046852 -8.825775 -5.585396 51.558491 8.067881 2.614341 -75.182419 7.071105 -23.361115 2.820780 -25.000000 10.578341 -37.873913 12.564229 -3.490462 -82.297554 -0.248834 -2.825417 34.690128 -0.609657 -0.457678 -0.375262 14.719242 13.507726 48.531349 -7.769787 -99.820427 74.786774 0.230945 -2.825669 31.405773 -71.503113 -67.533867 -17.480886 10.028421 -25.302795 21.712015 -5.538284 -2.616813 -1.669785 -2.368895 -10.873048 -1.242827 -15.337414 -33.174259 38.954945 4.016997 3.305523 15.338365 -22.323149 2.124875 
9.772687 48.257553 63.269997 -2.347914 4.656842 24.059364 21.678240 -17.100756 -4.833726 -7.973378 -8.567771 -5.264675 51.558491 8.067881 2.614341 -75.002701 7.151789 -23.365940 3.203813 -25.000000 10.830606 -39.633141 14.165412 -5.347699 -81.152077 -0.320345 -2.751584 34.179131 -1.007984 -0.271365 -0.255915 14.116392 13.511649 47.781963 -6.797053 -100.076797 74.796364 0.230472 -2.823929 31.952522 -71.556633 -68.878838 -17.117550 10.634475 -25.118469 21.367914 -5.459771 -2.573230 -1.060935 -1.491856 -10.604251 -0.003058 -14.604368 -33.842903 37.915806 4.183520 3.353087 13.175988 -24.421679 -0.697868 
9.614468 48.465881 63.750607 -2.843736 4.548326 22.516338 21.546198 -17.510038 -3.934447 -7.814760 -8.211707 -4.963444 51.558491 8.067881 2.614341 -75.352959 7.322236 -22.872570 3.521727 -25.000000 11.078639 -41.243774 15.797302 -7.110094 -80.100098 -0.216209 -2.721395 33.477753 -1.595578 -0.083851 -0.494665 13.547873 13.681894 46.903419 -5.242906 -98.847908 75.054466 0.242882 -2.818969 32.354725 -71.380501 -69.955208 -16.914896 11.297236 -24.664640 21.348347 -5.455965 -2.580588 -0.528302 -0.538851 -10.403339 1.216492 -13.821978 -34.313370 36.496742 4.134344 3.183231 12.027584 -22.768028 0.206426 
9.456141 48.674103 64.231178 -3.346189 4.424102 20.964321 21.424191 -17.925606 -3.038728 -7.652896 -7.864943 -4.654119 51.558491 8.067881 2.614341 -75.699188 7.493706 -22.368452 3.842097 -25.000000 11.339396 -42.903114 17.383497 -8.919698 -79.048447 -0.111846 -2.694310 32.770981 -2.178620 0.118383 -0.727417 12.968361 13.853127 46.054955 -3.663226 -97.644852 75.322021 0.235776 -2.815774 32.694218 -71.203728 -70.959793 -16.711649 11.971096 -24.217812 21.338285 -5.455858 -2.579714 0.007023 0.443835 -10.211090 2.437893 -13.023932 -34.756180 35.077419 4.085166 3.014853 10.899727 -21.111183 1.146911 
9.285672 48.873737 64.709099 -3.917903 4.258273 19.332964 21.339703 -18.142492 -2.140040 -7.491081 -7.508873 -4.245567 51.558491 8.067881 2.614341 -76.321030 7.659079 -21.470081 4.094325 -25.000000 11.556570 -44.305492 19.089628 -10.959356 -78.073433 -0.091035 -2.647331 32.438019 -2.894482 0.565715 -0.721246 12.528101 13.848835 44.945869 -1.678630 -95.972290 75.859085 0.165638 -2.830801 32.224964 -70.658440 -70.903694 -16.650749 12.692733 -22.643633 21.686726 -5.406392 -2.785891 1.342790 1.770375 -9.804296 3.803430 -12.162686 -35.134880 33.237076 4.280970 2.893964 9.896795 -19.684208 2.136538 
